<svg width="126" height="40" viewBox="0 0 126 40" fill="none" xmlns="http://www.w3.org/2000/svg">
<g id="Airbnb_logo 2" clip-path="url(#clip0_2_673)">
<path id="logo 1" d="M66.8561 10.4552C66.8561 11.8405 65.7082 12.974 64.3051 12.974C62.902 12.974 61.7541 11.8405 61.7541 10.4552C61.7541 9.06985 62.8383 7.93639 64.3051 7.93639C65.7719 7.96788 66.8561 9.10134 66.8561 10.4552ZM56.3969 15.4928C56.3969 15.7132 56.3969 16.1225 56.3969 16.1225C56.3969 16.1225 55.1852 14.5797 52.6023 14.5797C48.3612 14.5797 45.013 17.7912 45.013 22.1991C45.013 26.607 48.2974 29.8184 52.6023 29.8184C55.2171 29.8184 56.3969 28.2442 56.3969 28.2442V28.9054C56.3969 29.2202 56.6202 29.4406 56.939 29.4406H60.0959V14.9575C60.0959 14.9575 57.1941 14.9575 56.939 14.9575C56.6202 14.9575 56.3969 15.2409 56.3969 15.4928ZM56.3969 24.7808C55.823 25.6309 54.6431 26.3551 53.24 26.3551C50.7528 26.3551 48.8395 24.8123 48.8395 22.1991C48.8395 19.5858 50.7528 18.0431 53.24 18.0431C54.6112 18.0431 55.8548 18.7987 56.3969 19.6173V24.7808ZM62.4556 14.9575H66.2184V29.4406H62.4556V14.9575ZM118.419 14.5797C115.836 14.5797 114.624 16.1225 114.624 16.1225V7.99937H110.861V29.4721C110.861 29.4721 113.763 29.4721 114.018 29.4721C114.337 29.4721 114.56 29.1887 114.56 28.9368V28.2757C114.56 28.2757 115.772 29.8499 118.355 29.8499C122.596 29.8499 125.944 26.607 125.944 22.2306C125.976 17.8227 122.628 14.5797 118.419 14.5797ZM117.813 26.3236C116.378 26.3236 115.23 25.5994 114.656 24.7493V19.5858C115.23 18.8302 116.505 18.0116 117.813 18.0116C120.3 18.0116 122.213 19.5543 122.213 22.1676C122.213 24.7808 120.3 26.3236 117.813 26.3236ZM108.948 20.8452V29.4721H105.185V21.286C105.185 18.8932 104.42 17.9171 102.283 17.9171C101.135 17.9171 99.9875 18.4838 99.2541 19.3339V29.4406H95.4913V14.9575H98.4569C98.7758 14.9575 98.999 15.2409 98.999 15.4928V16.1225C100.083 14.989 101.55 14.5797 102.985 14.5797C104.611 14.5797 105.982 15.052 107.098 15.9651C108.438 17.0355 108.948 18.4209 108.948 20.8452ZM86.4033 14.5797C83.8204 14.5797 82.6087 16.1225 82.6087 16.1225V7.99937H78.8459V29.4721C78.8459 29.4721 81.7477 29.4721 82.0028 29.4721C82.3217 29.4721 82.5449 29.1887 82.5449 28.9368V28.2757C82.5449 28.2757 83.7566 29.8499 86.3395 29.8499C90.5806 29.8499 93.9288 26.607 93.9288 22.2306C93.9926 17.8227 90.6763 14.5797 86.4033 14.5797ZM85.7974 26.3236C84.3625 26.3236 83.2145 25.5994 82.6406 24.7493V19.5858C83.2145 18.8302 84.4901 18.0116 85.7974 18.0116C88.2847 18.0116 90.198 19.5543 90.198 22.1676C90.198 24.7808 88.2847 26.3236 85.7974 26.3236ZM75.6253 14.5797C76.7732 14.5797 77.3472 14.7686 77.3472 14.7686V18.2005C77.3472 18.2005 74.2222 17.1615 72.277 19.3654V29.5036H68.5143V14.9575C68.5143 14.9575 71.4161 14.9575 71.6712 14.9575C71.9901 14.9575 72.2133 15.2409 72.2133 15.4928V16.1225C72.9467 15.3039 74.4773 14.5797 75.6253 14.5797ZM36.7222 28.1497C36.5309 27.6774 36.3395 27.1737 36.1482 26.7644C35.8293 26.0717 35.5105 25.4105 35.2554 24.8123L35.2235 24.7808C32.5449 18.9876 29.6431 13.1314 26.5819 7.36967L26.4543 7.14927C26.1355 6.58254 25.8166 5.95285 25.5296 5.32315C25.1469 4.63048 24.7643 3.90632 24.1265 3.21365C22.8829 1.67089 21.0972 0.820801 19.1839 0.820801C17.2388 0.820801 15.4849 1.67089 14.1775 3.1192C13.6036 3.81187 13.1571 4.53602 12.7745 5.22869C12.4556 5.85839 12.1367 6.4566 11.8497 7.05482L11.7222 7.27521C8.72474 13.0684 5.79107 18.9246 3.08061 24.6864L3.04872 24.7493C2.76173 25.379 2.47474 26.0087 2.15586 26.7014C1.96454 27.1107 1.77321 27.583 1.58189 28.0868C1.07168 29.5036 0.912242 30.8574 1.10357 32.2428C1.51811 35.1394 3.49515 37.5637 6.17372 38.6342C7.19413 39.0435 8.24643 39.2639 9.33061 39.2639C9.64949 39.2639 10.0321 39.2324 10.351 39.2009C11.6265 39.0435 12.9658 38.6342 14.2413 37.8786C15.8357 36.997 17.3663 35.7061 19.0883 33.88C20.8102 35.7376 22.3727 36.997 23.9352 37.8786C25.2107 38.6027 26.55 39.0435 27.8255 39.2009C28.1444 39.2324 28.527 39.2639 28.8459 39.2639C29.9301 39.2639 31.0462 39.075 32.0028 38.6342C34.7452 37.5637 36.6584 35.0764 37.073 32.2428C37.3918 30.9204 37.2324 29.5665 36.7222 28.1497ZM19.1202 30.1333C17.0156 27.52 15.6444 25.0327 15.1661 22.9547C14.9747 22.0731 14.9429 21.286 15.0385 20.5933C15.1023 19.9636 15.3574 19.4284 15.6763 18.9876C16.4097 17.9486 17.6533 17.2874 19.1202 17.2874C20.587 17.2874 21.8625 17.9171 22.564 18.9876C22.8829 19.4599 23.1061 19.9951 23.2018 20.5933C23.3293 21.286 23.2656 22.1046 23.0742 22.9547C22.5959 25.0327 21.2247 27.4885 19.1202 30.1333ZM34.6814 31.9594C34.3944 33.9744 33.0551 35.7061 31.1418 36.4617C30.2171 36.8396 29.1967 36.9655 28.1763 36.8396C27.1878 36.7136 26.2311 36.4303 25.2107 35.832C23.8076 35.0764 22.4046 33.88 20.7464 32.0853C23.3293 28.9683 24.8918 26.1032 25.4658 23.5529C25.7528 22.3565 25.7847 21.286 25.6571 20.2785C25.4977 19.3025 25.1469 18.4209 24.6048 17.6652C23.3931 15.9336 21.3523 14.9261 19.0883 14.9261C16.8242 14.9261 14.7834 15.9651 13.5717 17.6652C13.0296 18.4209 12.6788 19.3339 12.5194 20.2785C12.3599 21.286 12.3918 22.388 12.7107 23.5529C13.2847 26.1032 14.911 28.9998 17.4301 32.1168C15.8357 33.88 14.4008 35.0764 12.9658 35.8635C11.9454 36.4303 10.9888 36.7451 10.0003 36.871C8.94796 36.997 7.92755 36.8396 7.03469 36.4932C5.12143 35.7376 3.75025 33.9744 3.49515 31.9909C3.3676 31.0149 3.46326 30.0703 3.84592 28.9998C3.97347 28.622 4.16479 28.2442 4.35612 27.7719C4.64311 27.1422 4.9301 26.5125 5.24898 25.8513L5.28086 25.7884C7.95944 20.0581 10.8612 14.1704 13.8587 8.47164L13.9862 8.25124C14.3051 7.68452 14.624 7.05482 14.911 6.48809C15.2298 5.85839 15.5806 5.29166 15.9952 4.7879C16.8242 3.87484 17.9084 3.37108 19.1202 3.37108C20.3319 3.37108 21.4161 3.87484 22.2451 4.7879C22.6597 5.29166 23.0105 5.85839 23.3293 6.48809C23.6482 7.05482 23.9671 7.68452 24.2541 8.25124L24.3816 8.47164C27.3472 14.2019 30.249 20.0896 32.9275 25.8198V25.8513C33.2464 26.481 33.5015 27.1737 33.8204 27.7719C34.0117 28.2442 34.2031 28.622 34.3306 28.9998C34.7133 29.9758 34.8408 30.9519 34.6814 31.9594Z" fill="#244D4D"/>
</g>
<defs>
<clipPath id="clip0_2_673">
<rect width="125" height="39" fill="white" transform="translate(0.976562 0.486084)"/>
</clipPath>
</defs>
</svg>
