<svg width="16" height="17" viewBox="0 0 16 17" fill="none" xmlns="http://www.w3.org/2000/svg">
<g id="arrow-pointing-to-right 1" clip-path="url(#clip0_2_484)">
<g id="Group">
<path id="Vector" d="M15.7831 7.74441L11.0217 2.98307C10.7312 2.69257 10.2601 2.69257 9.96961 2.98307C9.67905 3.27363 9.67905 3.74465 9.96961 4.03521L13.4609 7.52652H0.744936C0.334092 7.52652 0.000976562 7.85964 0.000976562 8.27048C0.000976562 8.68126 0.334092 9.01444 0.744936 9.01444H13.4609L9.96973 12.5057C9.67917 12.7963 9.67917 13.2673 9.96973 13.5579C10.115 13.703 10.3054 13.7758 10.4958 13.7758C10.6862 13.7758 10.8766 13.703 11.0219 13.5579L15.7831 8.79655C16.0736 8.50599 16.0736 8.03497 15.7831 7.74441Z" fill="white"/>
</g>
</g>
<defs>
<clipPath id="clip0_2_484">
<rect width="16" height="16" fill="white" transform="translate(0.000976562 0.270508)"/>
</clipPath>
</defs>
</svg>
