<svg width="51" height="51" viewBox="0 0 51 51" fill="none" xmlns="http://www.w3.org/2000/svg">
<g id="free-delivery 1" clip-path="url(#clip0_2_640)">
<g id="Group">
<path id="Vector" d="M40.9333 20.9121H36.1221V17.6699C36.1221 16.8609 35.4662 16.2051 34.6572 16.2051H1.70801C0.899023 16.2051 0.243164 16.8609 0.243164 17.6699V44.3431C0.243164 45.1521 0.899023 45.8079 1.70801 45.8079H6.69629C8.29043 52.0463 17.0941 52.0421 18.6858 45.8079H31.8004C33.3945 52.0463 42.1982 52.0421 43.7899 45.8079H48.7783C49.5873 45.8079 50.2432 45.1521 50.2432 44.3431V30.222C50.2432 25.0885 46.0667 20.9121 40.9333 20.9121ZM12.6911 47.5853C10.9033 47.5853 9.44893 46.1308 9.44893 44.3431C9.62695 40.0419 15.756 40.0432 15.9333 44.3431C15.9333 46.1308 14.4788 47.5853 12.6911 47.5853ZM33.1924 40.2371C32.5298 40.9791 32.044 41.8814 31.8004 42.8781H18.6858C17.0917 36.6398 8.28799 36.644 6.69629 42.8781H3.17285V19.1347H33.1924V40.2371ZM37.7952 47.5853C36.0074 47.5853 34.553 46.1308 34.553 44.3431C34.7311 40.0419 40.8601 40.0432 41.0374 44.3431C41.0374 46.1308 39.583 47.5853 37.7952 47.5853ZM47.3135 42.8782H43.7916C43.1322 40.1798 40.6939 38.1712 37.7953 38.1712H36.1221V23.8418H39.4685V33.3601C39.4685 34.169 40.1243 34.8249 40.9333 34.8249H47.3135V42.8782ZM47.3135 31.8951H42.3981V24.0114C45.2124 24.6752 47.3135 27.2079 47.3135 30.222V31.8951Z" fill="#244D4D"/>
<path id="Vector_2" d="M36.226 12.8587H40.1485C42.0921 12.7813 42.0906 10.0057 40.1485 9.92902H37.9552L38.2514 8.15167H40.1485C42.0921 8.07423 42.0906 5.29865 40.1485 5.22198H38.7397L39.0359 3.44464H41.7175C43.661 3.3672 43.6596 0.591614 41.7175 0.514954H37.7949C37.0788 0.514954 36.4677 1.03263 36.35 1.73898L34.7811 11.153C34.6322 12.0461 35.3221 12.8587 36.226 12.8587Z" fill="#222222"/>
<path id="Vector_3" d="M26.812 12.8587H30.7346C32.6781 12.7813 32.6767 10.0057 30.7346 9.92902H28.5412L28.8374 8.15167H30.7346C32.6781 8.07423 32.6767 5.29865 30.7346 5.22198H29.3258L29.6221 3.44464H32.3036C34.2472 3.3672 34.2457 0.591614 32.3036 0.514954H28.3812C27.665 0.514954 27.0539 1.03263 26.9362 1.73898L25.3672 11.153C25.2184 12.0461 25.9082 12.8587 26.812 12.8587Z" fill="#244D4D"/>
<path id="Vector_4" d="M15.5883 12.8388C16.7256 13.0283 17.2059 12.0429 17.274 11.6347L17.5142 10.1935L20.3981 12.5317C21.0647 13.072 21.9807 12.9058 22.4586 12.3163C22.9681 11.6879 22.8717 10.7654 22.2432 10.256L20.6152 8.93614H21.9741C22.6901 8.93614 23.3013 8.41847 23.419 7.71222L24.3346 2.22072C24.4834 1.32755 23.7935 0.514954 22.8896 0.514954H17.3981C16.682 0.514954 16.0709 1.03263 15.9532 1.73898L15.0441 7.19308C15.0437 7.19503 15.0435 7.19708 15.0431 7.19904C15.0424 7.20294 15.0419 7.20685 15.0412 7.21075C15.038 7.22863 15.0348 7.24659 15.0322 7.26466L14.3841 11.153C14.2511 11.951 14.7902 12.7058 15.5883 12.8388ZM18.639 3.44464H21.1603L20.7333 6.00646H18.212L18.639 3.44464Z" fill="#244D4D"/>
<path id="Vector_5" d="M6.95862 12.8388C8.09592 13.0284 8.57629 12.0428 8.64436 11.6347L9.09407 8.93627H11.1219C13.0655 8.85883 13.064 6.08324 11.1219 6.00658H9.58235L10.0093 3.44476H12.6909C14.6345 3.36732 14.633 0.591736 12.6909 0.515076H8.76838C8.05227 0.515076 7.44114 1.03275 7.32346 1.7391L5.75452 11.1532C5.62141 11.951 6.16057 12.7058 6.95862 12.8388Z" fill="#244D4D"/>
</g>
</g>
<defs>
<clipPath id="clip0_2_640">
<rect width="50" height="50" fill="white" transform="translate(0.243164 0.5)"/>
</clipPath>
</defs>
</svg>
