<svg width="17" height="17" viewBox="0 0 17 17" fill="none" xmlns="http://www.w3.org/2000/svg">
<g id="email 1" clip-path="url(#clip0_2_524)">
<g id="Group">
<g id="Group_2">
<path id="Vector" d="M10.6235 8.57249L16.0175 11.9825V5.01849L10.6235 8.57249Z" fill="#7F7F7F"/>
</g>
</g>
<g id="Group_3">
<g id="Group_4">
<path id="Vector_2" d="M0.0175781 5.01849V11.9825L5.41158 8.57249L0.0175781 5.01849Z" fill="#7F7F7F"/>
</g>
</g>
<g id="Group_5">
<g id="Group_6">
<path id="Vector_3" d="M15.0176 2.99048H1.01762C0.518623 2.99048 0.122623 3.36248 0.0476227 3.84148L8.01762 9.09248L15.9876 3.84148C15.9126 3.36248 15.5166 2.99048 15.0176 2.99048Z" fill="#7F7F7F"/>
</g>
</g>
<g id="Group_7">
<g id="Group_8">
<path id="Vector_4" d="M9.70765 9.17657L8.29265 10.1086C8.20865 10.1636 8.11365 10.1906 8.01765 10.1906C7.92165 10.1906 7.82665 10.1636 7.74265 10.1086L6.32765 9.17557L0.0496521 13.1466C0.126652 13.6216 0.520652 13.9906 1.01765 13.9906H15.0177C15.5147 13.9906 15.9087 13.6216 15.9857 13.1466L9.70765 9.17657Z" fill="#7F7F7F"/>
</g>
</g>
</g>
<defs>
<clipPath id="clip0_2_524">
<rect width="16" height="16" fill="white" transform="translate(0.0175781 0.490479)"/>
</clipPath>
</defs>
</svg>
