<svg width="16" height="17" viewBox="0 0 16 17" fill="none" xmlns="http://www.w3.org/2000/svg">
<g id="right-arrow (1) 1" clip-path="url(#clip0_2_620)">
<g id="Group">
<g id="Group_2">
<path id="Vector" d="M3.55507 9.36993L10.6753 16.49C10.84 16.6548 11.0598 16.7456 11.2942 16.7456C11.5286 16.7456 11.7484 16.6548 11.9131 16.49L12.4375 15.9658C12.7787 15.6242 12.7787 15.069 12.4375 14.7279L6.45846 8.74892L12.4441 2.76328C12.6088 2.59847 12.6997 2.37876 12.6997 2.14449C12.6997 1.90995 12.6088 1.69025 12.4441 1.52531L11.9197 1.00121C11.7549 0.836402 11.5352 0.745606 11.3008 0.745606C11.0664 0.745606 10.8466 0.836402 10.6819 1.00121L3.55507 8.12779C3.39 8.29312 3.29933 8.51387 3.29985 8.74853C3.29933 8.98411 3.39 9.20472 3.55507 9.36993Z" fill="#D1CECE"/>
</g>
</g>
</g>
<defs>
<clipPath id="clip0_2_620">
<rect width="16" height="16" fill="white" transform="matrix(-1 0 0 -1 16 16.7456)"/>
</clipPath>
</defs>
</svg>
