<svg width="51" height="51" viewBox="0 0 51 51" fill="none" xmlns="http://www.w3.org/2000/svg">
<g clip-path="url(#clip0_2_630)">
<path d="M46.4821 14.0661L46.4805 14.0272C46.4588 13.547 46.4443 13.0388 46.4355 12.4735C46.3947 9.71664 44.2032 7.43622 41.4459 7.2821C35.6972 6.96129 31.25 5.08675 27.4502 1.38307L27.4178 1.35217C26.1784 0.215779 24.3088 0.215779 23.069 1.35217L23.0366 1.38307C19.2368 5.08675 14.7896 6.96129 9.04091 7.28249C6.28403 7.43622 4.09211 9.71664 4.0513 12.4739C4.0429 13.0354 4.02803 13.5435 4.00628 14.0272L4.004 14.1176C3.89222 19.9797 3.75337 27.2753 6.19401 33.8972C7.53601 37.5387 9.56848 40.7041 12.2346 43.3061C15.2711 46.2693 19.2482 48.6219 24.0555 50.298C24.2119 50.3526 24.3744 50.3968 24.54 50.43C24.7734 50.4766 25.0084 50.4998 25.2434 50.4998C25.4784 50.4998 25.7138 50.4766 25.9468 50.43C26.1124 50.3968 26.276 50.3522 26.4332 50.2973C31.2348 48.618 35.2077 46.2644 38.2416 43.3015C40.9065 40.6988 42.939 37.5326 44.2821 33.8903C46.7319 27.2486 46.5934 19.9392 46.4821 14.0661ZM41.5294 32.8752C38.9553 39.8546 33.7006 44.6477 25.465 47.5278C25.4357 47.5377 25.4044 47.5465 25.372 47.553C25.2869 47.5698 25.2003 47.5698 25.1141 47.5526C25.082 47.5461 25.0508 47.5377 25.0218 47.5278C16.7775 44.6531 11.5193 39.8626 8.94707 32.8829C6.69755 26.779 6.82496 20.0819 6.93749 14.1737L6.93825 14.1409C6.96114 13.6332 6.9764 13.1014 6.98479 12.517C7.0031 11.2929 7.97814 10.2801 9.20456 10.2118C12.4577 10.0302 15.3157 9.40154 17.9417 8.28995C20.5643 7.17987 22.8936 5.61509 25.0618 3.50633C25.1721 3.41325 25.3151 3.41287 25.425 3.50633C27.5936 5.61509 29.9229 7.17987 32.5451 8.28995C35.1711 9.40154 38.0291 10.0302 41.2826 10.2118C42.5091 10.2801 43.4841 11.2929 43.502 12.5174C43.5108 13.1048 43.5261 13.6366 43.5489 14.1409C43.6611 20.056 43.7855 26.7584 41.5294 32.8752Z" fill="#244D4D"/>
<path d="M25.2425 13.04C18.3715 13.04 12.7818 18.6301 12.7818 25.5007C12.7818 32.3718 18.3715 37.9618 25.2425 37.9618C32.1132 37.9618 37.7032 32.3718 37.7032 25.5007C37.7032 18.6301 32.1132 13.04 25.2425 13.04ZM25.2425 35.0276C19.9893 35.0276 15.7157 30.754 15.7157 25.5007C15.7157 20.2475 19.9893 15.9739 25.2425 15.9739C30.4953 15.9739 34.769 20.2475 34.769 25.5007C34.769 30.754 30.4953 35.0276 25.2425 35.0276Z" fill="#244D4D"/>
<path d="M28.8237 21.6323L23.0361 27.4199L21.4652 25.849C20.8922 25.2761 19.9633 25.2761 19.3904 25.849C18.8178 26.422 18.8178 27.3509 19.3904 27.9235L21.9989 30.532C22.2854 30.8185 22.6607 30.9615 23.0361 30.9615C23.4114 30.9615 23.7868 30.8185 24.0733 30.532L30.8986 23.7067C31.4711 23.1337 31.4711 22.2049 30.8986 21.6323C30.3256 21.0589 29.3967 21.0589 28.8237 21.6323Z" fill="#244D4D"/>
</g>
<defs>
<clipPath id="clip0_2_630">
<rect width="50" height="50" fill="white" transform="translate(0.243164 0.5)"/>
</clipPath>
</defs>
</svg>
