<svg width="97" height="42" viewBox="0 0 97 42" fill="none" xmlns="http://www.w3.org/2000/svg">
<g id="stripe-4 1" clip-path="url(#clip0_2_715)">
<path id="Vector" d="M7.13566 16.5456C7.13566 15.4986 7.99483 15.0958 9.41808 15.0958C11.4585 15.0958 14.036 15.7135 16.0766 16.8143V10.5045C13.8481 9.61851 11.6465 9.26945 9.41808 9.26945C3.96746 9.26945 0.342773 12.1156 0.342773 16.8681C0.342773 24.2783 10.5455 23.0971 10.5455 26.2923C10.5455 27.5271 9.4717 27.93 7.96802 27.93C5.73959 27.93 2.89346 27.017 0.638034 25.782V32.1722C3.1351 33.2462 5.65898 33.7025 7.96802 33.7025C13.5527 33.7025 17.3922 30.9371 17.3922 26.131C17.3654 18.1299 7.13566 19.5528 7.13566 16.5456ZM25.2859 3.89962L18.7347 5.29569L18.7079 26.8022C18.7079 30.7761 21.6882 33.7025 25.662 33.7025C27.8636 33.7025 29.4745 33.2998 30.3605 32.8165V27.3661C29.5015 27.7151 25.2591 28.9502 25.2591 24.9764V15.4448H30.3605V9.72593H25.2591L25.2859 3.89962ZM38.7108 11.7127L38.2812 9.72593H32.4817V33.2192H39.1941V17.2976C40.778 15.2302 43.4632 15.606 44.2955 15.9013V9.72593C43.4363 9.40367 40.2949 8.81296 38.7108 11.7127ZM45.9332 9.72593H52.6725V33.2192H45.9332V9.72593ZM45.9332 7.68534L52.6725 6.23547V0.785034L45.9332 2.2081V7.68516V7.68534ZM66.688 9.26945C64.0567 9.26945 62.3651 10.5045 61.4256 11.3638L61.0763 9.69912H55.1696V41.0055L61.8818 39.5826L61.9088 31.9842C62.8754 32.6823 64.2983 33.6757 66.6611 33.6757C71.4673 33.6757 75.8437 29.8093 75.8437 21.2981C75.8169 13.5117 71.3867 9.26945 66.688 9.26945ZM65.077 27.7688C63.493 27.7688 62.553 27.205 61.9088 26.5069L61.8818 16.5456C62.58 15.7671 63.5466 15.2302 65.077 15.2302C67.5203 15.2302 69.2118 17.9687 69.2118 21.486C69.2118 25.0838 67.5471 27.7688 65.077 27.7688ZM97.0011 21.5666C97.0011 14.6931 93.6717 9.26945 87.3085 9.26945C80.9181 9.26945 77.0517 14.6933 77.0517 21.513C77.0517 29.5945 81.6164 33.6757 88.1674 33.6757C91.3626 33.6757 93.7791 32.9507 95.6049 31.9305V26.5605C93.7793 27.4735 91.6849 28.0374 89.0268 28.0374C86.4223 28.0374 84.1133 27.1244 83.818 23.9562H96.9475C96.9475 23.607 97.0011 22.2109 97.0011 21.5666ZM83.7374 19.0159C83.7374 15.9819 85.5901 14.7199 87.2817 14.7199C88.9194 14.7199 90.6647 15.9819 90.6647 19.0159H83.7374Z" fill="#154444" fill-opacity="0.86"/>
</g>
<defs>
<clipPath id="clip0_2_715">
<rect width="96.6583" height="40.4032" fill="white" transform="translate(0.342773 0.784424)"/>
</clipPath>
</defs>
</svg>
