<svg width="51" height="51" viewBox="0 0 51 51" fill="none" xmlns="http://www.w3.org/2000/svg">
<g id="guarantee 1" clip-path="url(#clip0_2_652)">
<g id="Group">
<path id="Vector" d="M47.5648 18.2177C46.9051 16.1747 47.1863 13.108 45.4715 10.7402C43.7432 8.35365 40.7372 7.67533 39.0398 6.43392C37.3604 5.2056 35.7979 2.53265 32.9728 1.61077C30.2273 0.714876 27.4199 1.9306 25.2432 1.9306C23.0667 1.9306 20.2595 0.714583 17.5136 1.61068C14.689 2.53236 13.1252 5.20589 11.4468 6.43363C9.75127 7.67357 6.74307 8.35374 5.01504 10.7399C3.30166 13.1058 3.58008 16.1795 2.92148 18.2176C2.29473 20.1574 0.243164 22.4854 0.243164 25.5002C0.243164 28.5169 2.29238 30.836 2.92148 32.7828C3.58125 34.8257 3.3 37.8924 5.01484 40.2603C6.74307 42.6469 9.74893 43.3251 11.4465 44.5666C13.1257 45.7948 14.6885 48.4679 17.5136 49.3897C20.2571 50.285 23.0689 49.0699 25.2432 49.0699C27.4144 49.0699 30.2327 50.2837 32.9728 49.3898C35.7975 48.4681 37.3603 45.7952 39.0396 44.5668C40.7351 43.3269 43.7433 42.6467 45.4713 40.2606C47.1848 37.8946 46.9062 34.8211 47.5648 32.7828C48.1916 30.843 50.2432 28.515 50.2432 25.5002C50.2432 22.4837 48.1944 20.1654 47.5648 18.2177ZM43.8479 31.5817C43.0789 33.962 43.2804 36.626 42.3077 37.9692C41.322 39.3302 38.7322 39.9519 36.7339 41.4136C34.7574 42.859 33.3722 45.1503 31.761 45.676C30.2368 46.1735 27.7528 45.1634 25.2433 45.1634C22.7153 45.1634 20.2569 46.1756 18.7254 45.676C17.1145 45.1503 15.7312 42.8606 13.7525 41.4135C11.766 39.9607 9.16152 39.3262 8.17861 37.969C7.20908 36.6303 7.40293 33.9479 6.63857 31.5818C5.88936 29.2635 4.14941 27.2562 4.14941 25.5002C4.14941 23.7425 5.88779 21.7421 6.63838 19.4188C7.40742 17.0385 7.20596 14.3744 8.17861 13.0313C9.16377 11.6711 11.7555 11.0474 13.7525 9.58685C15.7353 8.13675 17.1118 5.85091 18.7252 5.32445C20.2481 4.82757 22.7402 5.83704 25.2431 5.83704C27.7756 5.83704 30.2278 4.82415 31.7609 5.32445C33.3717 5.85003 34.7562 8.14066 36.7339 9.58695C38.7201 11.0398 41.3248 11.6743 42.3077 13.0314C43.2774 14.3703 43.0825 17.05 43.8478 19.4186V19.4187C44.597 21.7369 46.3369 23.7443 46.3369 25.5002C46.3369 27.2579 44.5985 29.2583 43.8479 31.5817ZM34.2415 19.2312C35.0043 19.994 35.0043 21.2306 34.2415 21.9933L24.4655 31.7693C23.7027 32.5321 22.466 32.532 21.7033 31.7693L16.2449 26.3109C15.4821 25.5481 15.482 24.3115 16.2448 23.5488C17.0076 22.7861 18.2444 22.786 19.0069 23.5488L23.0844 27.6261L31.4792 19.2313C32.242 18.4685 33.4787 18.4685 34.2415 19.2312Z" fill="#244D4D"/>
</g>
</g>
<defs>
<clipPath id="clip0_2_652">
<rect width="50" height="50" fill="white" transform="translate(0.243164 0.5)"/>
</clipPath>
</defs>
</svg>
