<svg width="91" height="33" viewBox="0 0 91 33" fill="none" xmlns="http://www.w3.org/2000/svg">
<g id="visa 1" clip-path="url(#clip0_2_687)">
<path id="Vector" d="M33.5966 30.7461L38.1477 5.14612H45.2588L40.8499 30.7461H33.5966Z" fill="#3C58BF"/>
<path id="Vector_2" d="M33.5966 30.7461L39.4277 5.14612H45.2588L40.8499 30.7461H33.5966Z" fill="#293688"/>
<path id="Vector_3" d="M66.592 5.4305C65.1698 4.86161 62.8943 4.29272 60.0498 4.29272C52.9387 4.29272 47.8187 7.84828 47.8187 12.9683C47.8187 16.8083 51.3743 18.7994 54.2187 20.0794C57.0631 21.3594 57.9165 22.2127 57.9165 23.3505C57.9165 25.0572 55.6409 25.9105 53.6498 25.9105C50.8054 25.9105 49.2409 25.4838 46.8231 24.4883L45.8276 24.0616L44.832 29.8927C46.5387 30.6038 49.6676 31.3149 52.9387 31.3149C60.4765 31.3149 65.4543 27.7594 65.4543 22.3549C65.4543 19.3683 63.6054 17.0927 59.3387 15.2438C56.7787 13.9638 55.2143 13.2527 55.2143 11.9727C55.2143 10.8349 56.4943 9.69717 59.3387 9.69717C61.7565 9.69717 63.4631 10.1238 64.7431 10.6927L65.4543 10.9772L66.592 5.4305Z" fill="#3C58BF"/>
<path id="Vector_4" d="M66.592 5.4305C65.1698 4.86161 62.8943 4.29272 60.0498 4.29272C52.9387 4.29272 49.0987 7.84828 49.0987 12.9683C49.0987 16.8083 51.3743 18.7994 54.2187 20.0794C57.0631 21.3594 57.9165 22.2127 57.9165 23.3505C57.9165 25.0572 55.6409 25.9105 53.6498 25.9105C50.8054 25.9105 49.2409 25.4838 46.8231 24.4883L45.8276 24.0616L44.832 29.8927C46.5387 30.6038 49.6676 31.3149 52.9387 31.3149C60.4765 31.3149 65.4543 27.7594 65.4543 22.3549C65.4543 19.3683 63.6054 17.0927 59.3387 15.2438C56.7787 13.9638 55.2143 13.2527 55.2143 11.9727C55.2143 10.8349 56.4943 9.69717 59.3387 9.69717C61.7565 9.69717 63.4631 10.1238 64.7431 10.6927L65.4543 10.9772L66.592 5.4305Z" fill="#293688"/>
<path id="Vector_5" d="M78.8232 5.14612C77.1165 5.14612 75.8365 5.28834 75.1254 6.99501L64.4588 30.7461H72.1388L73.561 26.4795H82.6632L83.5165 30.7461H90.3432L84.3699 5.14612H78.8232ZM75.5521 22.2128C75.9788 20.9328 78.3965 14.675 78.3965 14.675C78.3965 14.675 78.9654 13.1106 79.3921 12.115L79.8188 14.5328C79.8188 14.5328 81.241 20.9328 81.5254 22.355H75.5521V22.2128Z" fill="#3C58BF"/>
<path id="Vector_6" d="M80.5299 5.14612C78.8232 5.14612 77.5432 5.28834 76.8321 6.99501L64.4588 30.7461H72.1388L73.561 26.4795H82.6632L83.5165 30.7461H90.3432L84.3699 5.14612H80.5299ZM75.5521 22.2128C76.121 20.7906 78.3965 14.675 78.3965 14.675C78.3965 14.675 78.9654 13.1106 79.3921 12.115L79.8188 14.5328C79.8188 14.5328 81.241 20.9328 81.5254 22.355H75.5521V22.2128Z" fill="#293688"/>
<path id="Vector_7" d="M20.5119 23.0661L19.8008 19.3683C18.5208 15.1017 14.3964 10.4083 9.84528 8.13277L16.2453 30.8883H23.9253L35.4453 5.28833H27.7653L20.5119 23.0661Z" fill="#3C58BF"/>
<path id="Vector_8" d="M20.5119 23.0661L19.8008 19.3683C18.5208 15.1017 14.3964 10.4083 9.84528 8.13277L16.2453 30.8883H23.9253L35.4453 5.28833H29.1875L20.5119 23.0661Z" fill="#293688"/>
<path id="Vector_9" d="M0.743164 5.14612L2.02316 5.43056C11.1254 7.5639 17.3832 12.9683 19.8009 19.3683L17.2409 7.27945C16.8143 5.57278 15.5343 5.14612 13.9698 5.14612H0.743164Z" fill="#FFBC00"/>
<path id="Vector_10" d="M0.743164 5.14612C9.84539 7.27945 17.3832 12.8261 19.8009 19.2261L17.3832 9.12834C16.9565 7.42167 15.5343 6.42612 13.9698 6.42612L0.743164 5.14612Z" fill="#F7981D"/>
<path id="Vector_11" d="M0.743164 5.14612C9.84539 7.27945 17.3832 12.8261 19.8009 19.2261L18.0943 13.6795C17.6676 11.9728 17.0987 10.2661 15.1076 9.55501L0.743164 5.14612Z" fill="#ED7C00"/>
<g id="Group">
<path id="Vector_12" d="M27.6231 22.2127L22.7875 17.3771L20.512 22.7816L19.9431 19.226C18.6631 14.9594 14.5386 10.266 9.98752 7.99048L16.3875 30.746H24.0675L27.6231 22.2127Z" fill="#051244"/>
<path id="Vector_13" d="M40.8492 30.7462L34.7336 24.4884L33.5958 30.7462H40.8492Z" fill="#051244"/>
<path id="Vector_14" d="M57.2053 21.9283C57.7742 22.4972 58.0587 22.9239 57.9164 23.4928C57.9164 25.1995 55.6409 26.0528 53.6498 26.0528C50.8053 26.0528 49.2409 25.6261 46.8231 24.6306L45.8276 24.2039L44.832 30.035C46.5387 30.7461 49.6676 31.4572 52.9387 31.4572C57.4898 31.4572 61.1876 30.1772 63.3209 27.9017L57.2053 21.9283Z" fill="#051244"/>
<path id="Vector_15" d="M65.4542 30.7459H72.1386L73.5609 26.4792H82.6631L83.5164 30.7459H90.3431L87.9253 20.3636L79.392 12.1147L79.8186 14.3903C79.8186 14.3903 81.2409 20.7903 81.5253 22.2125H75.552C76.1209 20.7903 78.3964 14.6747 78.3964 14.6747C78.3964 14.6747 78.9653 13.1103 79.392 12.1147" fill="#051244"/>
</g>
</g>
<defs>
<clipPath id="clip0_2_687">
<rect width="89.6" height="32" fill="white" transform="translate(0.743164 0.986084)"/>
</clipPath>
</defs>
</svg>
